<mxfile host="app.diagrams.net" modified="2024-10-20T12:16:28.088Z" agent="Mozilla/5.0 (Windows NT 10.0; Win64; x64) AppleWebKit/537.36 (KHTML, like Gecko) Chrome/127.0.0.0 Safari/537.36 OPR/113.0.0.0" etag="c-YvpVzQo3AAtLAAZEjX" version="24.6.4" type="github">
  <diagram name="Page-1" id="9ZrBwJcnwbHm2XrOtvay">
    <mxGraphModel dx="673" dy="413" grid="1" gridSize="10" guides="1" tooltips="1" connect="1" arrows="1" fold="1" page="1" pageScale="1" pageWidth="850" pageHeight="1100" math="0" shadow="0">
      <root>
        <mxCell id="0" />
        <mxCell id="1" parent="0" />
        <mxCell id="PH1OSEjd1albumc3SuZu-10" value="BankAccount" style="swimlane;fontStyle=1;align=center;verticalAlign=top;childLayout=stackLayout;horizontal=1;startSize=26;horizontalStack=0;resizeParent=1;resizeParentMax=0;resizeLast=0;collapsible=1;marginBottom=0;whiteSpace=wrap;html=1;" vertex="1" parent="1">
          <mxGeometry x="400" y="70" width="310" height="200" as="geometry">
            <mxRectangle x="400" y="70" width="110" height="30" as="alternateBounds" />
          </mxGeometry>
        </mxCell>
        <mxCell id="PH1OSEjd1albumc3SuZu-11" value="- _accountId: int&amp;nbsp;&lt;div&gt;- _accountOwner: String&lt;/div&gt;&lt;div&gt;+ _balance: double&lt;/div&gt;" style="text;strokeColor=none;fillColor=none;align=left;verticalAlign=top;spacingLeft=4;spacingRight=4;overflow=hidden;rotatable=0;points=[[0,0.5],[1,0.5]];portConstraint=eastwest;whiteSpace=wrap;html=1;" vertex="1" parent="PH1OSEjd1albumc3SuZu-10">
          <mxGeometry y="26" width="310" height="54" as="geometry" />
        </mxCell>
        <mxCell id="PH1OSEjd1albumc3SuZu-12" value="" style="line;strokeWidth=1;fillColor=none;align=left;verticalAlign=middle;spacingTop=-1;spacingLeft=3;spacingRight=3;rotatable=0;labelPosition=right;points=[];portConstraint=eastwest;strokeColor=inherit;" vertex="1" parent="PH1OSEjd1albumc3SuZu-10">
          <mxGeometry y="80" width="310" height="8" as="geometry" />
        </mxCell>
        <mxCell id="PH1OSEjd1albumc3SuZu-13" value="+ BankAccount(accountId: int, accountOwner: String)&lt;div&gt;+ get accountId(): int&amp;nbsp;&lt;/div&gt;&lt;div&gt;+ get accountOwner(): String&lt;/div&gt;&lt;div&gt;+ Balance(): double&lt;/div&gt;&lt;div&gt;+ withdraw(amount: double): void&lt;/div&gt;&lt;div&gt;+credit(amount: double): void&lt;/div&gt;&lt;div&gt;+ toString(): String&amp;nbsp;&lt;/div&gt;" style="text;strokeColor=none;fillColor=none;align=left;verticalAlign=top;spacingLeft=4;spacingRight=4;overflow=hidden;rotatable=0;points=[[0,0.5],[1,0.5]];portConstraint=eastwest;whiteSpace=wrap;html=1;" vertex="1" parent="PH1OSEjd1albumc3SuZu-10">
          <mxGeometry y="88" width="310" height="112" as="geometry" />
        </mxCell>
        <mxCell id="PH1OSEjd1albumc3SuZu-16" value="Bank" style="swimlane;fontStyle=1;align=center;verticalAlign=top;childLayout=stackLayout;horizontal=1;startSize=26;horizontalStack=0;resizeParent=1;resizeParentMax=0;resizeLast=0;collapsible=1;marginBottom=0;whiteSpace=wrap;html=1;" vertex="1" parent="1">
          <mxGeometry x="30" y="80" width="270" height="150" as="geometry" />
        </mxCell>
        <mxCell id="PH1OSEjd1albumc3SuZu-17" value="-&amp;nbsp; name: String&amp;nbsp;&lt;div&gt;- _account:&amp;nbsp; List&amp;lt;BankAccount &amp;gt;&lt;/div&gt;" style="text;strokeColor=none;fillColor=none;align=left;verticalAlign=top;spacingLeft=4;spacingRight=4;overflow=hidden;rotatable=0;points=[[0,0.5],[1,0.5]];portConstraint=eastwest;whiteSpace=wrap;html=1;" vertex="1" parent="PH1OSEjd1albumc3SuZu-16">
          <mxGeometry y="26" width="270" height="44" as="geometry" />
        </mxCell>
        <mxCell id="PH1OSEjd1albumc3SuZu-18" value="" style="line;strokeWidth=1;fillColor=none;align=left;verticalAlign=middle;spacingTop=-1;spacingLeft=3;spacingRight=3;rotatable=0;labelPosition=right;points=[];portConstraint=eastwest;strokeColor=inherit;" vertex="1" parent="PH1OSEjd1albumc3SuZu-16">
          <mxGeometry y="70" width="270" height="8" as="geometry" />
        </mxCell>
        <mxCell id="PH1OSEjd1albumc3SuZu-19" value="+ Bank(name: String)&lt;div&gt;+ createAccount(accountId: int, accountOwner: String): BankAccount&lt;/div&gt;&lt;div&gt;+ toString(): String&lt;/div&gt;" style="text;strokeColor=none;fillColor=none;align=left;verticalAlign=top;spacingLeft=4;spacingRight=4;overflow=hidden;rotatable=0;points=[[0,0.5],[1,0.5]];portConstraint=eastwest;whiteSpace=wrap;html=1;" vertex="1" parent="PH1OSEjd1albumc3SuZu-16">
          <mxGeometry y="78" width="270" height="72" as="geometry" />
        </mxCell>
        <mxCell id="PH1OSEjd1albumc3SuZu-21" value="" style="endArrow=diamondThin;endFill=0;endSize=24;html=1;rounded=0;entryX=1;entryY=0.5;entryDx=0;entryDy=0;exitX=-0.004;exitY=0.594;exitDx=0;exitDy=0;exitPerimeter=0;" edge="1" parent="1" source="PH1OSEjd1albumc3SuZu-11" target="PH1OSEjd1albumc3SuZu-17">
          <mxGeometry width="160" relative="1" as="geometry">
            <mxPoint x="360" y="210" as="sourcePoint" />
            <mxPoint x="420" y="180" as="targetPoint" />
          </mxGeometry>
        </mxCell>
      </root>
    </mxGraphModel>
  </diagram>
</mxfile>
